PathFileType	4	(X/Y/Z)	Patient4_TMGait_0pt8_01_right_42.trc.trc
DataRate	CameraRate	NumFrames	NumMarkers	Units	OrigDataRate	OrigDataStartFrame	OrigNumFrames
89.171974522293	89.171974522293	6	33	mm	89.171974522293	71	       141
Frame#	Time	Sacral			L.Shoulder			Chest			R.Shoulder			Neck			R.ASIS			L.ASIS			R.Thigh.Superior			R.Thigh.Lateral			R.Thigh.Inferior			R.Patella			L.Thigh.Superior			L.Thigh.Lateral			L.Thigh.Inferior			L.Patella			L.Shank.Superior			L.Shank.Lateral			L.Shank.Inferior			R.Shank.Superior			R.Shank.Lateral			R.Shank.Inferior			R.Heel			R.Midfoot.Superior			R.Midfoot.Lateral			R.Toe			L.Heel			L.Midfoot.Lateral			L.Midfoot.Superior			L.Toe			L.Elbow			L.Wrist			R.Elbow			R.Wrist			
		X1	Y1	Z1	X2	Y2	Z2	X3	Y3	Z3	X4	Y4	Z4	X5	Y5	Z5	X6	Y6	Z6	X7	Y7	Z7	X8	Y8	Z8	X9	Y9	Z9	X10	Y10	Z10	X11	Y11	Z11	X12	Y12	Z12	X13	Y13	Z13	X14	Y14	Z14	X15	Y15	Z15	X16	Y16	Z16	X17	Y17	Z17	X18	Y18	Z18	X19	Y19	Z19	X20	Y20	Z20	X21	Y21	Z21	X22	Y22	Z22	X23	Y23	Z23	X24	Y24	Z24	X25	Y25	Z25	X26	Y26	Z26	X27	Y27	Z27	X28	Y28	Z28	X29	Y29	Z29	X30	Y30	Z30	X31	Y31	Z31	X32	Y32	Z32	X33	Y33	Z33	

71	47.965000000000	912.696266483221	994.315355109675	514.285609850463	1054.596356546241	1415.227710664060	306.307178771470	1188.109585674476	1345.315828565803	443.627890724978	1142.951535607899	1424.136476162925	628.639066235741	1072.587467337229	1476.326845681231	461.401173914453	1147.554269750887	922.258332508703	598.549734900760	1099.359431367596	940.597080018608	326.697255690793	1130.643492827043	708.085563546984	575.412140575298	1020.986051237652	620.894569581007	642.178128033195	1071.728173198838	551.284304696813	559.562915799765	1044.890214511582	465.977546378914	563.932900117759	1180.637595503613	761.930091628489	362.081842319175	1132.201667481104	629.784854792496	289.755416933064	1238.584833929321	574.817314217629	350.309241145950	1268.421833497329	513.659633172821	347.308223294830	1256.906845535013	442.273017284121	338.699962192755	1201.383266442328	305.157478132557	296.336789008082	1300.549147371550	217.151913562880	349.463143695057	999.157480400136	386.470478607976	572.652722887419	911.486443126055	299.317344371261	639.327903379621	926.757004232771	198.894435759400	572.530467678506	764.386563975319	48.754465840360	546.539242928761	937.221118569113	96.619856686185	580.281167819691	847.976799977736	39.095376789446	619.762619307489	1056.189155277817	39.864878997342	607.985453183485	1233.773770630033	38.056147672835	395.770366973644	1306.148312595466	43.243064298473	314.415522340437	1374.075224100885	122.614789041498	332.789791555115	1508.136041861700	96.187546861348	305.142096600055	873.326590362151	1110.409421805911	241.382620126974	794.092565494395	864.203312701452	271.476339833192	1353.679183081332	1174.933885719497	735.562546032234	1557.581257180351	1300.785810770441	654.309388415470	
72	47.976214285714	914.085686508198	993.151218384419	511.630555869744	1054.739432255144	1414.031870596638	304.098130646841	1188.643641689505	1344.495948620661	441.245995614907	1143.351911404867	1423.277558426697	626.236835482639	1072.903909717894	1475.141389129759	459.110320031189	1148.785824901345	920.722216535704	596.552999781351	1101.275100979726	939.272028453657	324.528977650432	1130.634232965422	706.382101077871	573.966204624062	1020.086965113396	620.026639075705	640.594763877441	1070.650042371609	549.707474184537	558.421266113030	1042.923460937476	464.014648927254	562.787026818679	1183.032029471247	760.838311676735	360.043991705360	1132.779371102991	627.759086471108	289.753040927936	1239.865690408400	573.415155587313	349.315433758242	1268.878625882741	511.311089420489	347.239867055253	1256.785779287834	439.513160369050	338.995928546474	1199.245957154594	302.912278260506	297.797854906964	1297.136493027331	213.870869397255	351.192971290470	995.731966834475	385.249433900656	571.710923966029	906.642739099549	299.819277744638	638.866405087392	920.078780024004	198.886391596950	572.490299253452	755.555966566445	50.435083616089	547.110158494339	928.820757044614	96.831814774326	580.636219358704	839.221156199998	39.733382813341	620.152233838692	1047.399354771795	39.557053453291	608.145696267073	1226.553421071169	37.640173376308	398.068686868453	1298.508155754637	41.439093389359	316.195454694864	1369.213809973656	117.895349421082	335.352552198996	1502.254363159886	86.988326945644	306.549681366316	871.244116908340	1111.007904399458	241.004557326624	789.377208215194	865.748104139799	271.836991970612	1357.115680287279	1178.119817094090	732.922971268152	1556.050975018230	1310.256831763845	650.913046320626	
73	47.987428571429	915.520332417136	992.199877635737	508.798963677774	1055.110523204723	1412.941452670936	301.720914455371	1189.330805090781	1343.819342417081	438.789270071941	1143.825498924147	1422.590236087531	623.755394854349	1073.342856129685	1474.132039232975	456.684136710851	1150.054241922077	919.328839035838	594.517872010866	1103.357197517926	938.198850991751	322.330075409955	1130.788540279783	704.841070882358	572.491893188055	1019.399970341117	619.258777554889	638.891969874206	1069.938797746018	548.234876432191	557.217429946991	1041.431863596935	462.018412745497	561.653393337252	1185.534133279333	760.043030627782	357.989250344473	1133.704412869538	626.269591904352	289.376223045889	1241.356500656884	572.467098862276	348.197773394055	1269.391112819153	509.303753367710	347.052085467558	1256.740168937872	437.035210143548	339.036945191929	1197.144495602455	301.098893637010	298.553196706113	1293.362815354154	210.806081006012	352.520697638094	992.651831306401	384.112058633420	570.766940876712	902.021530851425	300.546463777954	638.346742265076	913.620563171837	199.070086825676	572.490116664353	746.793956278192	52.546337409151	547.767412143786	920.601154451989	97.068112363870	581.055531983569	830.515550316209	40.550875573159	620.597235136620	1038.613959882443	39.273591790436	608.287324420180	1218.450956540936	37.454011448778	399.703770080832	1290.205192751409	39.829388511664	317.485651239902	1363.654282944573	113.350784239629	337.593339528033	1495.702462902375	77.925730643278	308.031118510941	870.060096949348	1111.202909036389	240.287432964517	786.093861686381	866.738438896377	271.685255953553	1359.876236761516	1180.674857029942	730.449397626958	1554.182502341405	1318.276897636769	647.773242718655	
74	47.998642857143	916.968392429745	991.503523080759	505.838782907837	1055.726022427174	1412.006125755284	299.188859713296	1190.169770083523	1343.315881691091	436.279520333222	1144.380044279400	1422.119482941149	621.208435922685	1073.914626251070	1473.348097822515	454.133076858914	1151.320590042252	918.141349777392	592.431294785997	1105.541179921072	937.428029465759	320.105590727578	1131.130786058103	703.524403929725	570.950656234066	1019.017386633194	618.597927935452	637.063334578737	1069.699659405862	546.905888457095	555.915454773360	1040.553315543464	459.994927419579	560.546785410518	1188.060158952428	759.609635215246	355.965697154901	1134.992511659385	625.417182724419	288.560727741038	1243.017096402779	572.020657239079	346.923383642158	1269.928112773074	507.723886838483	346.669081365631	1256.760413276263	434.938176654808	338.771546272478	1195.153715690786	299.798152818087	298.526937359256	1289.336138743546	208.111234174158	353.395511241164	990.026740590180	383.075174170391	569.836540750559	897.712649879614	301.549829072381	637.769748008115	907.472720372489	199.489451989025	572.534409530037	738.155373162344	55.209811527861	548.492680949472	912.625207505822	97.332802627384	581.540834440957	821.881821276925	41.620769333064	621.082061865088	1029.813576348424	39.000510575849	608.398424006872	1209.817125442856	37.473217568695	400.709449263735	1281.558294595153	38.489928320559	318.298232948613	1357.520411546677	109.258998182951	339.414105160209	1488.654945329297	69.624380281435	309.470348122053	869.802777026294	1111.004158784378	239.200541165169	784.281526952070	867.155598460048	270.984288574603	1361.961051449453	1182.537036868779	728.158432266672	1552.062870503722	1324.832330389657	644.902209357144	
75	48.009857142857	918.394771010531	991.102247028823	502.795099929368	1056.588960703033	1411.281428561998	296.521195032466	1191.148696112796	1343.021423801960	433.740981717283	1145.011910918085	1421.916001911114	618.608811769290	1074.618890977637	1472.839807301230	451.470143368091	1152.537020409263	917.230512474136	590.276313995901	1107.760182750380	937.001930902945	317.852630468780	1131.696077635278	702.499323466024	569.299383177714	1019.055747188310	618.047057134842	635.108660859600	1070.069650415103	545.758937576588	554.487366125614	1040.456287691025	457.954419278526	559.492472355519	1190.543151373667	759.593100300364	353.999342413108	1136.616837842473	625.251861066348	287.287232903378	1244.780906039376	572.073742097077	345.457327919328	1270.444350498608	506.605247544267	346.016525025083	1256.794688077309	433.270564131316	338.178710235786	1193.255707145816	299.042315605225	297.731519083829	1285.084352861179	205.879331126523	353.818043868671	987.999339487850	382.154682666124	568.940924002721	893.836659316612	302.886524177789	637.135771237570	901.750760607566	200.197324023736	572.625780622860	729.720797935990	58.579800763926	549.252834328534	904.968672522056	97.644877699144	582.088230999912	813.355159059352	43.049460968541	621.581651781960	1020.978313550775	38.710846818716	608.469001634912	1200.907923330279	37.646298759951	401.175407454715	1272.770542539278	37.458754387147	318.684774709299	1350.870597791920	105.817530298721	340.767398629758	1481.209827782066	62.562814929737	310.749435317102	870.492533305530	1110.439570219390	237.720671277764	783.979237596884	866.999914860404	269.703080012431	1363.351611464293	1183.667398360678	726.053367116589	1549.765408269465	1329.908542068729	642.306412377253	
76	48.021071428571	919.764418693461	991.028619081623	499.703740854198	1057.689266389712	1410.822640981458	293.741414393857	1192.245177294277	1342.973540082595	431.199736005863	1145.701789649714	1422.030126538590	615.968220474376	1075.442609599182	1472.652352862601	448.709974155890	1153.649697651126	916.667485116547	588.037387956338	1109.953491356563	936.948111486373	315.562961546785	1132.529796558895	701.831788739492	567.502520794642	1019.645346438878	617.604503930620	633.037341424538	1071.208242006921	544.828295989181	552.922431404122	1041.327008388273	455.912181068080	558.526914139780	1192.928733671103	760.013958691209	352.087025024855	1138.486976660540	625.754354493967	285.585357871274	1246.538093943068	572.561110201406	343.772065557027	1270.863955152067	505.920311827798	345.043364921119	1256.743351352923	432.025591053289	337.272715173386	1191.350530133468	298.805370660756	296.267706584098	1280.575926915891	204.138078104467	353.836404982289	986.737772160579	381.364613719370	568.103796457878	890.540954073282	304.615336707835	636.443123784579	896.589364149933	201.254221942147	572.761558933147	721.598445564209	62.838771500499	549.997795176436	897.715573018640	98.045297969545	582.685026768862	804.986694434312	44.979297624176	622.060330743108	1012.092104837114	38.366987729642	608.492598069965	1191.891697504137	37.908365108079	401.223340761473	1263.951667671102	36.735769989675	318.725225881870	1343.733724559325	103.125385966048	341.660959402305	1473.420713610872	57.018424145153	311.779841013040	872.136730608959	1109.554452502552	235.832018194846	785.225258715055	866.290816170384	267.820030834598	1364.008498425968	1184.053951482993	724.124111750033	1547.348815201447	1333.490090006629	639.985762876178	
